<?xml version="1.0" encoding="utf-8"?>
<!-- Generator: Adobe Illustrator 23.1.0, SVG Export Plug-In . SVG Version: 6.00 Build 0)  -->
<svg version="1.1" xmlns="http://www.w3.org/2000/svg" xmlns:xlink="http://www.w3.org/1999/xlink" x="0px" y="0px"
	 viewBox="0 0 800 800" style="enable-background:new 0 0 800 800;" xml:space="preserve">
<style type="text/css">
	.st0{fill:#F3F3F3;}
	.st1{fill:#FFFFFF;}
	.st2{fill:#838383;}
	.st3{fill:none;stroke:#838383;stroke-width:6;stroke-linecap:round;stroke-linejoin:round;stroke-miterlimit:10;}
</style>
<g id="暂无内容">
</g>
<g id="图层_2">
</g>
<g id="图层_3">
	<g>
		<g>
			<g>
				<g>
					<circle class="st0" cx="665.77" cy="171.47" r="19.78"/>
				</g>
			</g>
			<g>
				<g>
					<circle class="st0" cx="97.65" cy="623.27" r="19.78"/>
				</g>
			</g>
			<g>
				<g>
					<path class="st0" d="M218.78,685.27c-7.38,0-13.38-6-13.38-13.38c0-7.38,6-13.38,13.38-13.38c7.38,0,13.38,6,13.38,13.38
						C232.16,679.27,226.16,685.27,218.78,685.27z M218.78,664.94c-3.83,0-6.95,3.12-6.95,6.95c0,3.83,3.12,6.95,6.95,6.95
						c3.83,0,6.95-3.12,6.95-6.95C225.74,668.06,222.62,664.94,218.78,664.94z"/>
				</g>
			</g>
			<g>
				<g>
					<path class="st0" d="M597.21,112.13h-19.98V92.16c0-3.66-2.96-6.62-6.62-6.62c-3.66,0-6.62,2.96-6.62,6.62v19.98h-19.98
						c-3.66,0-6.62,2.96-6.62,6.62c0,3.66,2.96,6.62,6.62,6.62h19.98v19.98c0,3.66,2.96,6.62,6.62,6.62c3.66,0,6.62-2.96,6.62-6.62
						v-19.98h19.98c3.66,0,6.62-2.96,6.62-6.62C603.83,115.1,600.87,112.13,597.21,112.13z"/>
				</g>
			</g>
			<g>
				<g>
					<path class="st0" d="M654.79,689.17h-14.84v-14.84c0-3.04-2.47-5.51-5.51-5.51c-3.04,0-5.51,2.47-5.51,5.51v14.84H614.1
						c-3.04,0-5.51,2.47-5.51,5.51s2.47,5.51,5.51,5.51h14.84v14.84c0,3.04,2.47,5.51,5.51,5.51c3.04,0,5.51-2.47,5.51-5.51v-14.84
						h14.84c3.04,0,5.51-2.47,5.51-5.51S657.83,689.17,654.79,689.17z"/>
				</g>
			</g>
			<g>
				<g>
					<path class="st0" d="M119.72,127.58c8.7,8.7,22.82,8.7,31.52,0l0,0c8.7-8.7,8.7-22.82,0-31.52l-6.66-6.66
						c-8.7-8.7-22.82-8.7-31.52,0h0c-8.7,8.7-8.7,22.82,0,31.52L119.72,127.58z"/>
				</g>
			</g>
			<g>
				<g>
					<path class="st0" d="M234.44,119.52c3.97,3.97,10.41,3.97,14.38,0c3.97-3.97,3.97-10.41,0-14.38l-10.01-10.01
						c-3.97-3.97-10.41-3.97-14.38,0c-3.97,3.97-3.97,10.41,0,14.38L234.44,119.52z"/>
				</g>
			</g>
			<g>
				<g>
					<path class="st0" d="M83.37,320.24c3.97,3.97,10.41,3.97,14.38,0h0c3.97-3.97,3.97-10.41,0-14.38l-10.01-10.01
						c-3.97-3.97-10.41-3.97-14.38,0c-3.97,3.97-3.97,10.41,0,14.38L83.37,320.24z"/>
				</g>
			</g>
			<g>
				<g>
					<path class="st0" d="M611.34,627.71c-3.97-3.97-10.41-3.97-14.38,0c-3.97,3.97-3.97,10.41,0,14.38l10.01,10.01
						c3.97,3.97,10.41,3.97,14.38,0c3.97-3.97,3.97-10.41,0-14.38L611.34,627.71z"/>
				</g>
			</g>
			<g>
				<g>
					<circle class="st0" cx="698.95" cy="636.2" r="32.77"/>
				</g>
			</g>
			<g>
				<g>
					<path class="st0" d="M699.6,484.24l-31.51-31.51l-19.97-21.27c-5.17-5.43-5.24-13.94-0.16-19.46v0
						c5.55-6.03,15.04-6.14,20.72-0.23l4.04,4.41l9.32,9.32c5.41,5.41,14.29,5.82,19.8,0.51c5.61-5.41,5.68-14.35,0.19-19.84
						l-18.63-18.63c-6.88-6.88-11.36-15.82-12.66-25.46c-18.22-135.39-134.2-239.79-274.58-239.79c-4.79,0-9.55,0.13-14.28,0.37
						c-5.11,0.26-10.1-1.61-13.71-5.23l-19.14-19.14c-8.55-8.55-22.47-9.18-31.32-0.94c-9.29,8.65-9.48,23.19-0.59,32.09l3.34,3.34
						l10.41,10.94c6.54,6.92,5.57,18-2.08,23.68c-6.51,4.83-14.68,3.26-20.19-2.69l-20.69-20.46l-18.04-18.04
						c-3.83-3.83-10.06-4.28-14.13-0.71c-4.46,3.92-4.62,10.71-0.49,14.84l13.14,13.14l8.56,8.24c8.7,8.52,8.89,21.8,0.24,30.36l0,0
						c-8.59,8.49-22.45,8.38-30.89-0.26l-14.74-15.33l-35.31-35.31c-8.7-8.7-22.82-8.7-31.52,0h0c-8.7,8.7-8.7,22.82,0,31.52
						l25.61,25.69l8.98,8.38c8.49,8.43,8.69,22.09,0.45,30.76l0,0c-8.82,9.29-23.69,9.11-32.28-0.4l-4.96-5.44l-15.36-15.44
						c-12.62-12.62-33.2-13.4-46.16-1.12c-13.45,12.73-13.67,33.97-0.66,46.98l37.34,37.33l17.8,17.59
						c6.71,6.64,6.5,17.55-0.46,23.93l0,0c-6.58,6.03-16.76,5.75-22.99-0.63l-5.35-5.55l-8.11-8.11c-3.97-3.97-10.41-3.97-14.38,0h0
						c-5.06,4.2-3.69,10.69,0.06,14.44l17.79,17.79l36.99,36.09c6.38,6.22,6.41,16.47,0.08,22.73l0,0
						c-6.18,6.11-16.12,6.15-22.34,0.08l-17.67-17.24L93.13,374.6c-5.41-5.41-14.29-5.82-19.8-0.51
						c-5.61,5.41-5.68,14.35-0.19,19.84l43.89,43.89c3.55,3.55,5.91,8.11,6.84,13.05c23.49,124.93,130.8,220.27,261.3,225.36
						c7.2,0.28,14.06,3.16,19.28,8.14c8.46,8.08,20.27,19.34,20.27,19.34c8.55,8.55,22.47,9.18,31.32,0.94
						c9.29-8.65,9.48-23.19,0.59-32.09l-2.26-2.26l-9.81-10.24c-5.59-6.06-5.03-15.55,1.23-20.92l0,0
						c5.93-5.08,14.81-4.58,20.13,1.13l20.22,21.22l22.02,22.02c8.9,8.89,23.44,8.7,32.09-0.58c8.24-8.84,7.6-22.77-0.94-31.32
						l-9.5-9.5c0,0-3.02-3.11-6.89-7.09c-9.03-9.28-8.71-24.16,0.7-33.05l0.48-0.45c9.02-8.52,23.15-8.43,32.07,0.2L570,615.13
						l5.91,5.91c3.83,3.83,10.07,4.28,14.13,0.71c4.46-3.92,4.62-10.71,0.49-14.84l-5.15-5.15c-0.94,0.44-20.83-20.04-32.63-32.32
						c-4.75-4.94-4.56-12.79,0.41-17.5l0,0c4.95-4.69,12.77-4.47,17.45,0.48l31.03,32.82l14.15,14.15
						c12.62,12.62,33.19,13.4,46.16,1.13c13.45-12.73,13.67-33.97,0.66-46.98l-22.57-22.57l-11.4-12.43
						c-5.57-6.02-5.32-15.38,0.56-21.1v0c6.11-5.94,15.92-5.64,21.67,0.65l2.92,3.4l14.64,14.65c8.9,8.9,23.44,8.7,32.09-0.58
						C708.78,506.71,708.15,492.79,699.6,484.24z"/>
				</g>
			</g>
			<g>
				<g>
					<path class="st1" d="M427.1,203.26h-14.84v-14.84c0-3.04-2.47-5.51-5.51-5.51c-3.04,0-5.51,2.47-5.51,5.51v14.84h-14.84
						c-3.04,0-5.51,2.47-5.51,5.51s2.47,5.51,5.51,5.51h14.84v14.84c0,3.04,2.47,5.51,5.51,5.51c3.04,0,5.51-2.47,5.51-5.51v-14.84
						h14.84c3.04,0,5.51-2.47,5.51-5.51S430.14,203.26,427.1,203.26z"/>
				</g>
			</g>
			<g>
				<g>
					<path class="st1" d="M582.85,421.8c-7.38,0-13.38-6-13.38-13.38s6-13.38,13.38-13.38c7.38,0,13.38,6,13.38,13.38
						S590.23,421.8,582.85,421.8z M582.85,401.47c-3.83,0-6.95,3.12-6.95,6.95c0,3.83,3.12,6.95,6.95,6.95
						c3.83,0,6.95-3.12,6.95-6.95C589.81,404.59,586.69,401.47,582.85,401.47z"/>
				</g>
			</g>
			<g>
				<g>
					<path class="st1" d="M220.2,523.84c-7.38,0-13.38-6-13.38-13.38s6-13.38,13.38-13.38c7.38,0,13.38,6,13.38,13.38
						S227.58,523.84,220.2,523.84z M220.2,503.51c-3.83,0-6.95,3.12-6.95,6.95c0,3.83,3.12,6.95,6.95,6.95
						c3.83,0,6.95-3.12,6.95-6.95C227.16,506.63,224.04,503.51,220.2,503.51z"/>
				</g>
			</g>
		</g>
		<g>
			<g>
				<g>
					<path class="st1" d="M213.3,275.23v251.48c0,9.87,8,17.86,17.86,17.86h162.86l34.48-79.35l-48.61-111.76l48.19-97.63
						l-197.06,1.52C221.21,257.44,213.3,265.41,213.3,275.23z"/>
				</g>
			</g>
			<g>
				<g>
					<path class="st1" d="M499.96,274.12l90.19,23.16c9.27,2.38,15.02,11.64,13.03,21l-55.2,260.76
						c-2.3,10.85-13.82,17.01-24.12,12.88l-114.05-45.69l47.36-65.64l-28.25-112.17L499.96,274.12z"/>
				</g>
			</g>
			<g>
				<g>
					<path class="st2" d="M394.02,547.57H231.16c-11.5,0-20.86-9.36-20.86-20.86V275.23c0-11.42,9.29-20.77,20.7-20.86l197.06-1.52
						c1.08-0.01,2.01,0.52,2.57,1.41s0.61,1.99,0.15,2.92l-47.58,96.38l48.05,110.48c0.33,0.76,0.33,1.63,0,2.39l-34.48,79.35
						C396.3,546.87,395.21,547.57,394.02,547.57z M423.24,258.88l-192.19,1.49c-8.13,0.06-14.75,6.73-14.75,14.86v251.48
						c0,8.2,6.67,14.86,14.86,14.86h160.89l33.18-76.35l-48.09-110.56c-0.35-0.81-0.33-1.73,0.06-2.52L423.24,258.88z"/>
				</g>
			</g>
			<g>
				<g>
					<path class="st2" d="M530.51,596.21c-2.63,0-5.26-0.5-7.76-1.5l-114.05-45.69c-0.86-0.34-1.51-1.06-1.77-1.95
						c-0.26-0.89-0.09-1.84,0.45-2.59l46.54-64.51l-27.91-110.82c-0.22-0.88-0.03-1.81,0.51-2.54l71.04-94.31
						c0.73-0.97,1.97-1.4,3.14-1.1l90.19,23.16c10.86,2.79,17.54,13.56,15.22,24.53l-55.2,260.76c-1.28,6.04-5.14,11.17-10.58,14.08
						C537.27,595.39,533.89,596.21,530.51,596.21z M414.49,544.88l110.49,44.27c4.09,1.64,8.65,1.39,12.53-0.69
						c3.88-2.07,6.63-5.73,7.54-10.03l55.2-260.76c1.65-7.81-3.11-15.49-10.84-17.48l-88.25-22.66l-68.97,91.56l27.9,110.78
						c0.22,0.86,0.04,1.77-0.48,2.49L414.49,544.88z"/>
				</g>
			</g>
			<g>
				<g>
					<path class="st2" d="M394.02,547.57H231.16c-11.5,0-20.86-9.36-20.86-20.86v-36.74c0-0.78,0.3-1.52,0.84-2.08L318.1,377.13
						c4.88-5.05,11.73-7.86,18.71-7.72c7.02,0.14,13.72,3.23,18.38,8.47l75.11,84.34c0.21,0.24,0.38,0.51,0.51,0.8l0.44,1.01
						c0.33,0.76,0.33,1.63,0,2.39l-34.48,79.35C396.3,546.86,395.21,547.57,394.02,547.57z M216.3,491.18v35.52
						c0,8.2,6.67,14.86,14.86,14.86h160.89l33.08-76.13l-74.42-83.57c-3.61-4.06-8.59-6.35-14.02-6.46
						c-5.43-0.09-10.5,1.98-14.27,5.89L216.3,491.18z"/>
				</g>
			</g>
			<g>
				<g>
					<path class="st2" d="M530.51,596.21c-2.63,0-5.26-0.5-7.76-1.5l-114.05-45.69c-0.86-0.34-1.51-1.06-1.77-1.95
						c-0.26-0.89-0.09-1.84,0.45-2.59l46.54-64.51l-9.49-37.68c-0.33-1.29,0.24-2.64,1.39-3.32l17.8-10.47
						c6.02-3.54,13.87-1.57,17.5,4.4l74.23,121.89c0.4,0.65,0.53,1.43,0.37,2.18l-4.8,22.69c-1.28,6.04-5.13,11.17-10.58,14.08
						C537.27,595.39,533.89,596.21,530.51,596.21z M414.49,544.88l110.49,44.27c4.08,1.64,8.65,1.39,12.53-0.69
						c3.88-2.07,6.63-5.73,7.54-10.03l4.56-21.52L476,436.02c-1.94-3.18-6.13-4.23-9.34-2.35L450.79,443l9.28,36.86
						c0.22,0.86,0.04,1.77-0.48,2.49L414.49,544.88z"/>
				</g>
			</g>
			<g>
				<g>
					<path class="st2" d="M516.72,399.81c-20.13,0-36.51-16.38-36.51-36.51s16.38-36.51,36.51-36.51s36.51,16.38,36.51,36.51
						S536.85,399.81,516.72,399.81z M516.72,332.79c-16.83,0-30.51,13.69-30.51,30.51s13.69,30.51,30.51,30.51
						s30.51-13.69,30.51-30.51S533.54,332.79,516.72,332.79z"/>
				</g>
			</g>
		</g>
	</g>
</g>
<g id="图层_4">
</g>
<g id="图层_5">
</g>
<g id="图层_6">
</g>
<g id="图层_7">
</g>
</svg>
