<?xml version="1.0" standalone="no"?><!DOCTYPE svg PUBLIC "-//W3C//DTD SVG 1.1//EN" "http://www.w3.org/Graphics/SVG/1.1/DTD/svg11.dtd"><svg t="1654261071359" class="icon" viewBox="0 0 1024 1024" version="1.1" xmlns="http://www.w3.org/2000/svg" p-id="22248" xmlns:xlink="http://www.w3.org/1999/xlink" width="200" height="200"><defs><style type="text/css"></style></defs><path d="M666.9 434.2c-19.3 0-35-15.7-35-35v-78.4c0-41.6-16.7-80.1-47-108.6-30.3-28.4-70-42.6-111.7-39.9-77.8 5.1-138.8 73.1-138.8 154.8v72.1c0 19.3-15.7 35-35 35s-35-15.7-35-35v-72.1c0-56.4 20.6-110.5 58-152.5 38.2-42.9 90.1-68.5 146.2-72.2 31-2 61.2 2.3 90 12.9 27.6 10.2 52.6 25.6 74.1 45.8 21.6 20.2 38.6 44.2 50.5 71.1 12.4 27.9 18.6 57.7 18.6 88.5v78.4c0.1 19.4-15.6 35.1-34.9 35.1z" fill="#7E41DF" p-id="22249"></path><path d="M319.9 922c-9 0-17.9-3.4-24.7-10.3L171.8 788.3c-21.8-21.8-33.9-51-33.9-82.1s12-60.3 33.9-82.1c21.8-21.8 51-33.9 82.1-33.9s60.3 12 82.1 33.9l30.9 30.9V321.4c0-64 52.1-116.1 116.1-116.1s116.1 52.1 116.1 116.1v214h207.7c43.7 0 79.3 35.6 79.3 79.3v272.2c0 19.3-15.7 35-35 35s-35-15.7-35-35V614.7c0-5.1-4.2-9.3-9.3-9.3H564c-19.3 0-35-15.7-35-35v-249c0-25.4-20.7-46.1-46.1-46.1s-46.1 20.7-46.1 46.1v418.1c0 14.2-8.5 26.9-21.6 32.3-13.1 5.4-28.1 2.4-38.1-7.6l-90.6-90.6c-8.6-8.6-20.2-13.4-32.6-13.4s-24 4.8-32.6 13.4c-18 18-18 47.2 0 65.2l123.4 123.4c13.7 13.7 13.7 35.8 0 49.5-6.9 6.9-15.8 10.3-24.8 10.3z" fill="#7E41DF" p-id="22250"></path></svg>