<?xml version="1.0" standalone="no"?><!DOCTYPE svg PUBLIC "-//W3C//DTD SVG 1.1//EN" "http://www.w3.org/Graphics/SVG/1.1/DTD/svg11.dtd"><svg t="1654319221848" class="icon" viewBox="0 0 1024 1024" version="1.1" xmlns="http://www.w3.org/2000/svg" p-id="1913" xmlns:xlink="http://www.w3.org/1999/xlink" width="200" height="200"><defs><style type="text/css"></style></defs><path d="M192 0h448.1536L960 320v576c0 70.6944-57.3056 128-128 128H192C121.3056 1024 64 966.6944 64 896V128C64 57.3056 121.3056 0 192 0z" fill="#00CB7F" p-id="1914"></path><path d="M640 0l320 320H768c-70.6944 0-128-57.3056-128-128V0z" fill="#7BE3B3" p-id="1915"></path><path d="M506.048 350.6304c77.5936 0 140.4928 62.8992 140.4928 140.4928v15.616H365.5552v-15.616c0-77.5936 62.8992-140.4928 140.4928-140.4928z" fill="#C0FFE2" p-id="1916"></path><path d="M460.3904 447.4112m-17.5616 0a17.5616 17.5616 0 1 0 35.1232 0 17.5616 17.5616 0 1 0-35.1232 0Z" fill="#00CB7F" p-id="1917"></path><path d="M551.7056 447.4112m-17.5616 0a17.5616 17.5616 0 1 0 35.1232 0 17.5616 17.5616 0 1 0-35.1232 0Z" fill="#00CB7F" p-id="1918"></path><path d="M609.308942 337.972817m9.123058 5.2672l0 0q9.123058 5.2672 3.855858 14.390258l-24.5888 42.58905q-5.2672 9.123058-14.390258 3.855858l0 0q-9.123058-5.2672-3.855858-14.390258l24.5888-42.58905q5.2672-9.123058 14.390258-3.855858Z" fill="#C0FFE2" p-id="1919"></path><path d="M384.528142 348.507217m9.123058-5.2672l0 0q9.123058-5.2672 14.390258 3.855858l24.5888 42.58905q5.2672 9.123058-3.855858 14.390258l0 0q-9.123058 5.2672-14.390258-3.855858l-24.5888-42.58905q-5.2672-9.123058 3.855858-14.390258Z" fill="#C0FFE2" p-id="1920"></path><path d="M365.5552 522.3424m17.5616 0l245.8624 0q17.5616 0 17.5616 17.5616l0 199.0272q0 17.5616-17.5616 17.5616l-245.8624 0q-17.5616 0-17.5616-17.5616l0-199.0272q0-17.5616 17.5616-17.5616Z" fill="#C0FFE2" p-id="1921"></path><path d="M303.1168 522.3424m15.616 0l15.6032 0q15.616 0 15.616 15.616l0 140.48q0 15.616-15.616 15.616l-15.6032 0q-15.616 0-15.616-15.616l0-140.48q0-15.616 15.616-15.616Z" fill="#C0FFE2" p-id="1922"></path><path d="M412.3776 647.2192m15.616 0l15.6032 0q15.616 0 15.616 15.616l0 140.48q0 15.616-15.616 15.616l-15.6032 0q-15.616 0-15.616-15.616l0-140.48q0-15.616 15.616-15.616Z" fill="#C0FFE2" p-id="1923"></path><path d="M662.144 522.3424m15.616 0l15.6032 0q15.616 0 15.616 15.616l0 140.48q0 15.616-15.616 15.616l-15.6032 0q-15.616 0-15.616-15.616l0-140.48q0-15.616 15.616-15.616Z" fill="#C0FFE2" p-id="1924"></path><path d="M552.8704 647.2192m15.616 0l15.6032 0q15.616 0 15.616 15.616l0 140.48q0 15.616-15.616 15.616l-15.6032 0q-15.616 0-15.616-15.616l0-140.48q0-15.616 15.616-15.616Z" fill="#C0FFE2" p-id="1925"></path></svg>