<?xml version="1.0" standalone="no"?><!DOCTYPE svg PUBLIC "-//W3C//DTD SVG 1.1//EN" "http://www.w3.org/Graphics/SVG/1.1/DTD/svg11.dtd"><svg t="1654313575811" class="icon" viewBox="0 0 1024 1024" version="1.1" xmlns="http://www.w3.org/2000/svg" p-id="2569" xmlns:xlink="http://www.w3.org/1999/xlink" width="200" height="200"><defs><style type="text/css"></style></defs><path d="M142.400063 0.000989h559.999305l273.600338 272.00051v673.598994c0 43.199325-35.200182 78.399507-78.399507 78.399507H143.999892c-43.199325 0-78.399507-35.200182-78.399507-78.399507V80.000324C64.000556 35.200182 99.198761 0.000989 142.400063 0.000989z" fill="#FF3A75" p-id="2570"></path><path d="M975.999706 272.00051H780.799864c-43.199325 0-78.399507-35.200182-78.399507-78.399507v-193.601003l273.599349 272.00051z" fill="#CB3561" p-id="2571"></path><path d="M705.600014 585.600516v16.000263c-6.400303 38.399839-38.399839 68.799547-70.400365 68.799547-31.999537 0-52.800273-30.399708-46.39997-68.799547 6.400303-38.399839 38.399839-68.800536 70.400364-68.800536h3.199657V364.800451l-201.600145 33.600354v223.999722c0 4.799486 0 11.199788-1.599828 16.000262-6.399314 38.399839-38.399839 68.799547-70.400365 68.799548-31.999537 0-52.799285-30.399708-46.398982-68.799548 6.399314-38.399839 38.399839-68.800536 70.400365-68.800536h3.199657V379.200885c0-11.200777 7.999143-19.19992 17.600091-20.800737l244.79947-39.999668c6.400303-1.599829 12.799617 0 17.600091 4.800475 4.799486 4.799486 7.999143 9.59996 7.999143 15.999274l1.600817 246.400287z" fill="#FFFFFF" p-id="2572"></path></svg>