<?xml version="1.0" standalone="no"?><!DOCTYPE svg PUBLIC "-//W3C//DTD SVG 1.1//EN" "http://www.w3.org/Graphics/SVG/1.1/DTD/svg11.dtd"><svg t="1654187865421" class="icon" viewBox="0 0 1024 1024" version="1.1" xmlns="http://www.w3.org/2000/svg" p-id="13056" xmlns:xlink="http://www.w3.org/1999/xlink" width="200" height="200"><defs><style type="text/css"></style></defs><path d="M0 0h1024v1024H0V0m627.712 129.137778c-109.340444 49.265778-218.225778 100.238222-328.362667 147.797333-69.063111 9.898667-139.832889-2.503111-209.237333 4.209778-19.569778 7.964444-29.696 27.761778-26.624 48.355555 1.365333 129.137778-1.934222 258.389333 1.820444 387.413334 19.569778 40.163556 70.314667 24.803556 105.927112 26.851555 32.995556 4.551111 59.278222-25.372444 52.110222-57.685333 21.390222 17.294222 50.631111 11.719111 76.003555 14.222222-7.054222 22.186667 5.461333 45.852444 27.306667 53.134222 100.010667 47.217778 200.248889 93.980444 300.600889 140.401778 26.851556 14.904889 60.302222-10.808889 53.930667-40.391111-0.227556-227.669333-0.227556-455.452444 0-683.008 5.916444-29.127111-26.396444-56.661333-53.475556-41.301333m195.470222 170.780444c-17.635556 9.784889-26.965333 32.540444-17.635555 51.313778 11.264 16.725333 26.510222 30.037333 38.343111 46.193778 53.703111 69.063111 48.469333 177.379556-12.743111 240.184889-11.719111 13.653333-29.013333 26.168889-28.558223 46.307555-2.730667 29.013333 37.546667 52.906667 60.643556 32.654222 65.877333-54.272 102.627556-142.108444 97.28-226.986666-7.850667-74.865778-44.828444-148.935111-106.951111-193.080889-7.623111 0.796444-22.755556 2.503111-30.378667 3.413333z" fill="#FFFFFF" p-id="13057"></path><path d="M356.920889 335.530667c82.147556-38.798222 166.115556-73.728 247.694222-113.777778-0.455111 114.119111-0.341333 228.238222-0.227555 342.357333-153.827556-8.533333-307.427556 10.922667-461.255112 10.012445-0.113778-72.248889 0.113778-144.611556-0.568888-216.860445 71.452444-4.323556 148.593778 14.791111 214.357333-21.731555z" fill="#FFFFFF" p-id="13058"></path><path d="M627.712 129.137778c27.079111-15.36 59.392 12.174222 53.475556 41.301333-0.227556 227.555556-0.227556 455.338667 0 683.008 6.371556 29.582222-27.079111 55.296-53.930667 40.391111-100.352-46.421333-200.590222-93.184-300.600889-140.401778-21.845333-7.281778-34.360889-30.947556-27.306667-53.134222 12.970667-12.856889 30.492444-30.72 50.403556-19.456 86.243556 37.091556 169.642667 80.668444 255.089778 119.580445-0.682667-78.848-0.113778-157.582222-0.455111-236.316445-0.113778-114.119111-0.227556-228.238222 0.227555-342.357333-81.578667 40.049778-165.546667 74.979556-247.694222 113.777778-65.763556 36.522667-142.904889 17.408-214.357333 21.731555 0.682667 72.248889 0.455111 144.611556 0.568888 216.860445 0 29.809778-0.113778 59.619556-0.455111 89.543111 28.672-0.568889 57.685333 4.209778 80.668445 22.414222 7.168 32.312889-19.114667 62.236444-52.110222 57.685333-35.612444-2.048-86.357333 13.312-105.927112-26.851555-3.754667-129.024-0.455111-258.275556-1.820444-387.413334-3.072-20.593778 7.054222-40.391111 26.624-48.355555 69.404444-6.712889 140.174222 5.688889 209.237333-4.209778 110.136889-47.559111 219.022222-98.531556 328.362667-147.797333zM823.182222 299.918222c7.623111-0.910222 22.755556-2.616889 30.378667-3.413333 62.122667 44.145778 99.100444 118.215111 106.951111 193.080889 5.347556 84.878222-31.402667 172.714667-97.28 226.986666-23.096889 20.252444-63.374222-3.640889-60.643556-32.654222-0.455111-20.138667 16.839111-32.654222 28.558223-46.307555 61.212444-62.805333 66.446222-171.121778 12.743111-240.184889-11.832889-16.156444-27.079111-29.468444-38.343111-46.193778-9.329778-18.773333 0-41.528889 17.635555-51.313778z" fill="#271A60" p-id="13059"></path><path d="M143.132444 574.122667c153.827556 0.910222 307.427556-18.545778 461.255112-10.012445 0.341333 78.734222-0.227556 157.468444 0.455111 236.316445-85.447111-38.912-168.846222-82.488889-255.089778-119.580445-19.911111-11.264-37.432889 6.599111-50.403556 19.456-25.372444-2.503111-54.613333 3.072-76.003555-14.222222-22.983111-18.204444-51.996444-22.983111-80.668445-22.414222 0.341333-29.923556 0.455111-59.733333 0.455111-89.543111z" fill="#01C6FF" p-id="13060"></path></svg>