<?xml version="1.0" standalone="no"?><!DOCTYPE svg PUBLIC "-//W3C//DTD SVG 1.1//EN" "http://www.w3.org/Graphics/SVG/1.1/DTD/svg11.dtd"><svg t="1654313591959" class="icon" viewBox="0 0 1024 1024" version="1.1" xmlns="http://www.w3.org/2000/svg" p-id="5062" xmlns:xlink="http://www.w3.org/1999/xlink" width="200" height="200"><defs><style type="text/css"></style></defs><path d="M957.952 270.08v495.36c0 112.384-91.136 203.52-203.52 203.52h-495.36c-112.384 0-203.52-91.136-203.52-203.52V270.08c0-112.64 91.136-203.52 203.52-203.52h495.36c112.256 0 203.52 90.88 203.52 203.52z" fill="#53DEDC" p-id="5063"></path><path d="M957.952 270.08v52.608h-902.4V270.08c0-19.84 2.816-39.04 7.808-57.216 2.048-6.272 4.224-12.288 6.528-18.432 1.024-2.816 2.304-5.248 3.584-8.064 14.08-31.488 35.968-58.624 63.488-79.104 24.192-18.432 52.864-31.232 84.096-36.992 8.832-1.792 17.92-3.072 27.136-3.328 3.584-0.512 7.04-0.512 10.88-0.512h495.36c45.312 0 87.168 14.848 120.832 39.808 16.384 12.032 30.72 26.496 42.624 42.624 9.6 13.056 17.92 27.136 24.192 42.624 0.512 1.024 0.768 2.048 1.28 3.072 0.512 1.024 1.024 2.304 1.28 3.328 1.536 3.84 2.816 7.296 3.84 11.392 6.144 18.944 9.472 39.68 9.472 60.8z" fill="#FFFFFF" p-id="5064"></path><path d="M136.832 107.392c-27.392 20.352-49.408 47.616-63.488 79.104l-10.112 26.496c-4.992 18.176-7.808 37.248-7.808 57.216v52.608h40.832l128-128-87.424-87.424zM390.016 66.56H258.944c-3.84 0-7.296 0-10.88 0.512l127.488 127.488-128.128 128.128h142.336L517.888 194.56 390.016 66.56zM683.904 66.56H541.568l128 128-128.512 128.128h142.592L811.776 194.56zM948.352 209.152l-113.536 113.536h123.136V270.08c0-21.12-3.328-41.856-9.6-60.928z" fill="#282828" p-id="5065"></path><path d="M944.512 197.76H163.84v-6.272h778.24c0.512 1.024 0.768 2.048 1.28 3.072 0.384 0.896 0.896 2.176 1.152 3.2zM55.552 321.024h902.4v4.608h-902.4z" fill="#282828" p-id="5066"></path></svg>